<?xml version="1.0" encoding="UTF-8"?>
<svg xmlns="http://www.w3.org/2000/svg" width="1024" height="1024" viewBox="0 0 1024 1024">
  <defs>
    <radialGradient id="bgGradient" cx="0.30" cy="0.25" r="0.90">
      <stop offset="0%" stop-color="#0A84FF"/>
      <stop offset="100%" stop-color="#0040DD"/>
    </radialGradient>
    <filter id="monitorShadow" x="-20%" y="-20%" width="140%" height="140%">
      <feGaussianBlur in="SourceAlpha" stdDeviation="6"/>
      <feOffset dx="0" dy="6" result="offsetblur"/>
      <feComponentTransfer><feFuncA type="linear" slope="0.15"/></feComponentTransfer>
      <feMerge>
        <feMergeNode/>
        <feMergeNode in="SourceGraphic"/>
      </feMerge>
    </filter>
    <filter id="windowShadow" x="-30%" y="-30%" width="160%" height="160%">
      <feGaussianBlur in="SourceAlpha" stdDeviation="4"/>
      <feOffset dx="0" dy="4" result="offsetblur"/>
      <feComponentTransfer><feFuncA type="linear" slope="0.25"/></feComponentTransfer>
      <feMerge>
        <feMergeNode/>
        <feMergeNode in="SourceGraphic"/>
      </feMerge>
    </filter>
  </defs>

  <!-- Squircle background with blue radial gradient -->
  <rect x="0" y="0" width="1024" height="1024" rx="224" ry="224" fill="url(#bgGradient)"/>

  <!-- Left monitor -->
  <g filter="url(#monitorShadow)">
    <rect x="146" y="324" width="352" height="272" rx="16" fill="#1C1C1E"/>
    <rect x="162" y="340" width="320" height="240" fill="#E5E5EA"/>
    <rect x="302" y="596" width="40" height="28" fill="#1C1C1E"/>
    <ellipse cx="322" cy="632" rx="60" ry="8" fill="#1C1C1E"/>
  </g>

  <!-- Right monitor -->
  <g filter="url(#monitorShadow)">
    <rect x="542" y="324" width="352" height="272" rx="16" fill="#1C1C1E"/>
    <rect x="558" y="340" width="320" height="240" fill="#E5E5EA"/>
    <rect x="698" y="596" width="40" height="28" fill="#1C1C1E"/>
    <ellipse cx="718" cy="632" rx="60" ry="8" fill="#1C1C1E"/>
  </g>

  <!-- Transition window + trail (rotated +8deg around window center 550,345) -->
  <g transform="rotate(8 550 345)">
    <!-- Trail (behind window, drawn first) -->
    <rect x="400" y="410" width="80" height="20" rx="6" fill="#FFFFFF" opacity="0.60"/>
    <rect x="360" y="430" width="80" height="20" rx="6" fill="#FFFFFF" opacity="0.40"/>
    <rect x="320" y="450" width="80" height="20" rx="6" fill="#FFFFFF" opacity="0.20"/>
    <!-- Window -->
    <rect x="470" y="290" width="160" height="110" rx="8"
          fill="#FFFFFF" stroke="#0A84FF" stroke-width="3"
          filter="url(#windowShadow)"/>
    <!-- Traffic lights -->
    <circle cx="484" cy="304" r="4" fill="#FF5F57"/>
    <circle cx="500" cy="304" r="4" fill="#FEBC2E"/>
    <circle cx="516" cy="304" r="4" fill="#28C840"/>
  </g>
</svg>
